<?xml version="1.0" encoding="UTF-8" standalone="no"?>
<!-- Created with Inkscape (http://www.inkscape.org/) -->

<svg
   xmlns:dc="http://purl.org/dc/elements/1.1/"
   xmlns:cc="http://creativecommons.org/ns#"
   xmlns:rdf="http://www.w3.org/1999/02/22-rdf-syntax-ns#"
   xmlns:svg="http://www.w3.org/2000/svg"
   xmlns="http://www.w3.org/2000/svg"
   xmlns:sodipodi="http://sodipodi.sourceforge.net/DTD/sodipodi-0.dtd"
   xmlns:inkscape="http://www.inkscape.org/namespaces/inkscape"
   width="89.10762mm"
   height="102.89262mm"
   viewBox="0 0 89.10762 102.89262"
   version="1.1"
   id="svg8"
   inkscape:version="0.92.4 (5da689c313, 2019-01-14)"
   sodipodi:docname="gaterlogo.svg">
  <defs
     id="defs2" />
  <sodipodi:namedview
     id="base"
     pagecolor="#ffffff"
     bordercolor="#666666"
     borderopacity="1.0"
     inkscape:pageopacity="0.0"
     inkscape:pageshadow="2"
     inkscape:zoom="0.98994949"
     inkscape:cx="41.032011"
     inkscape:cy="197.03644"
     inkscape:document-units="mm"
     inkscape:current-layer="layer1"
     showgrid="false"
     showguides="true"
     inkscape:guide-bbox="true"
     inkscape:snap-global="false"
     inkscape:window-width="1366"
     inkscape:window-height="705"
     inkscape:window-x="-8"
     inkscape:window-y="-8"
     inkscape:window-maximized="1"
     fit-margin-top="0"
     fit-margin-left="0"
     fit-margin-right="0"
     fit-margin-bottom="0" />
  <metadata
     id="metadata5">
    <rdf:RDF>
      <cc:Work
         rdf:about="">
        <dc:format>image/svg+xml</dc:format>
        <dc:type
           rdf:resource="http://purl.org/dc/dcmitype/StillImage" />
        <dc:title></dc:title>
      </cc:Work>
    </rdf:RDF>
  </metadata>
  <g
     inkscape:label="Layer 1"
     inkscape:groupmode="layer"
     id="layer1"
     transform="translate(-51.452142,-68.660833)">
    <path
       sodipodi:type="star"
       style="fill:none;fill-opacity:1;stroke:#48b842;stroke-width:4;stroke-linecap:round;stroke-linejoin:miter;stroke-miterlimit:10;stroke-dasharray:none;stroke-dashoffset:0;stroke-opacity:1"
       id="path815"
       sodipodi:sides="6"
       sodipodi:cx="96.005951"
       sodipodi:cy="120.10714"
       sodipodi:r1="49.136906"
       sodipodi:r2="42.553806"
       sodipodi:arg1="0.52359878"
       sodipodi:arg2="1.0471976"
       inkscape:flatsided="true"
       inkscape:rounded="0"
       inkscape:randomized="0"
       d="m 138.55976,144.67559 -42.553809,24.56846 -42.553809,-24.56846 0,-49.136903 42.553809,-24.568453 42.553809,24.568453 z" />
    <text
       xml:space="preserve"
       style="font-style:normal;font-variant:normal;font-weight:normal;font-stretch:normal;font-size:16.93333244px;line-height:1.25;font-family:Arial;-inkscape-font-specification:Arial;letter-spacing:0px;word-spacing:0px;fill:#48b842;fill-opacity:1;stroke:none;stroke-width:0.26458332"
       x="75.076881"
       y="145.42435"
       id="text819"><tspan
         sodipodi:role="line"
         id="tspan817"
         x="75.076881"
         y="145.42435"
         style="font-style:normal;font-variant:normal;font-weight:normal;font-stretch:normal;font-family:'Reem Kufi';-inkscape-font-specification:'Reem Kufi';fill:#48b842;fill-opacity:1;stroke-width:0.26458332">gater</tspan></text>
    <path
       style="fill:none;stroke:#48b842;stroke-width:0.5;stroke-linecap:butt;stroke-linejoin:miter;stroke-miterlimit:4;stroke-dasharray:none;stroke-opacity:1"
       d="m 56.882654,118.74306 c 0,0 3.687326,-3.96279 5.072125,-6.26556 1.308981,-2.1767 1.41668,-5.01244 2.983604,-7.01149 0.920304,-1.17409 2.16977,-2.19963 3.580323,-2.68523 2.398402,-0.82568 5.096552,-0.50385 7.608183,-0.14919 2.164802,0.30569 4.094962,1.67801 6.265565,1.93933 3.26441,0.39303 6.654565,0.19468 9.845889,-0.59671 3.974456,-0.98558 8.185947,-2.28784 11.188507,-5.072139 1.746,-1.619093 2.67882,-4.006362 3.43115,-6.265565 0.22218,-0.667217 -0.14578,-1.543283 0.29836,-2.088511 0.83446,-1.024419 2.49994,-1.826301 3.72951,-1.342627 1.7178,0.675726 2.21549,3.105068 2.53607,4.922938 0.47881,2.715139 -1.04427,8.204914 -1.04427,8.204914 0,0 -3.43323,3.08878 -5.37049,4.32623 -7.665283,4.89634 -24.465543,12.08359 -24.465543,12.08359 l 34.758973,11.48687 c 0,0 -1.43127,1.6363 -2.38687,2.08851 -2.7341,1.29381 -5.92614,1.5122 -8.95083,1.4918 -3.63813,-0.0245 -7.184054,-1.17449 -10.740966,-1.93933 -3.207147,-0.68964 -6.271048,-2.22539 -9.547524,-2.38688 -3.06245,-0.15093 -6.236406,0.2466 -9.099991,1.34261 -3.786887,1.44941 -10.144246,6.71312 -10.144246,6.71312"
       id="path863"
       inkscape:connector-curvature="0"
       sodipodi:nodetypes="cssssssssssscsccsssssc" />
    <path
       style="fill:none;stroke:#48b842;stroke-width:1;stroke-linecap:butt;stroke-linejoin:miter;stroke-miterlimit:4;stroke-dasharray:none;stroke-opacity:1"
       d="m 67.218287,109.51042 1.737251,-3.34086 3.608139,0.93544"
       id="path865"
       inkscape:connector-curvature="0" />
    <path
       style="fill:#93d78f;fill-opacity:1;stroke:#48b842;stroke-width:0.41766524px;stroke-linecap:butt;stroke-linejoin:miter;stroke-opacity:1"
       d="m 90.499959,121.41826 c 0,0 -1.223089,-2.2509 -1.547155,-2.97292 -0.222578,-0.49588 1.069796,-3.04322 1.069796,-3.04322 l -7.523913,3.36679 z"
       id="path867"
       inkscape:connector-curvature="0"
       sodipodi:nodetypes="csccc" />
    <path
       style="fill:none;stroke:#48b842;stroke-width:0.26458332px;stroke-linecap:butt;stroke-linejoin:miter;stroke-opacity:1"
       d="m 91.272541,121.53755 1.737255,-0.66817 0.334086,1.33635 1.937703,-0.60136 0.334086,1.33635 2.271792,-0.40091 0.400905,1.33635 2.472242,-0.53454 0.53454,1.46999 2.80633,-0.735 1.00226,2.20498 3.54132,-1.40317 0.53454,2.6727 3.80859,-2.20498 0.80181,3.67496"
       id="path871"
       inkscape:connector-curvature="0" />
    <path
       style="fill:none;stroke:#48b842;stroke-width:0.26458332px;stroke-linecap:butt;stroke-linejoin:miter;stroke-opacity:1"
       d="m 90.738004,115.1899 1.670433,1.06908 0.400905,-2.20497 2.806329,1.06908 0.200454,-2.33861 2.873148,1.20271 0.534537,-2.93997 3.14042,1.5368 0.60135,-3.4745 2.40543,1.46998 1.00226,-3.54132 2.6727,2.20497 0.13363,-4.14267"
       id="path873"
       inkscape:connector-curvature="0" />
    <path
       style="fill:none;stroke:#48b842;stroke-width:0.26458332px;stroke-linecap:butt;stroke-linejoin:miter;stroke-opacity:1"
       d="m 137.12233,106.12873 -11.06727,-4.63692 -30.521579,16.63096 34.206849,11.90625 7.46503,-5.10268"
       id="path875"
       inkscape:connector-curvature="0"
       sodipodi:nodetypes="ccccc" />
    <path
       style="fill:none;stroke:#93d78f;stroke-width:0.2;stroke-linecap:butt;stroke-linejoin:miter;stroke-miterlimit:4;stroke-dasharray:none;stroke-opacity:1"
       d="m 103.16604,118.46395 c -0.48698,-0.8646 -0.15833,-2.17006 0.46772,-2.93996 1.5032,-1.84861 4.30151,-2.43213 6.68174,-2.53906 2.47255,-0.11108 5.52896,0.13373 7.14945,2.00452 1.23539,1.42621 1.81826,4.06774 0.735,5.61266 -1.24407,1.77426 -4.18847,1.58667 -6.34765,1.40317 -3.11557,-0.26478 -7.15177,-0.81695 -8.68626,-3.54133 z"
       id="path877"
       inkscape:connector-curvature="0"
       sodipodi:nodetypes="sssssss" />
    <path
       style="fill:none;stroke:#93d78f;stroke-width:0.2;stroke-linecap:butt;stroke-linejoin:miter;stroke-miterlimit:4;stroke-dasharray:none;stroke-opacity:1"
       d="m 128.62346,126.68249 c -1.19486,0.22488 -2.64309,0.20501 -3.60814,-0.53454 -0.88674,-0.67954 -1.89049,-2.10353 -1.33635,-3.0736 0.81257,-1.42247 3.40088,-1.31043 4.87767,-0.60135 1.10884,0.53241 2.24131,1.94843 1.93771,3.14041 -0.17729,0.69604 -1.16502,0.93623 -1.87089,1.06908 z"
       id="path895"
       inkscape:connector-curvature="0"
       sodipodi:nodetypes="ssssss" />
    <path
       sodipodi:nodetypes="ssssss"
       inkscape:connector-curvature="0"
       id="path897"
       d="m 128.33176,126.2616 c -0.97581,0.18365 -2.15853,0.16742 -2.94666,-0.43655 -0.72418,-0.55496 -1.54391,-1.71789 -1.09136,-2.51011 0.6636,-1.16169 2.7774,-1.07019 3.98345,-0.49111 0.90556,0.4348 1.83041,1.59123 1.58247,2.56468 -0.14479,0.56844 -0.95144,0.76459 -1.5279,0.87309 z"
       style="fill:none;stroke:#93d78f;stroke-width:0.2;stroke-linecap:butt;stroke-linejoin:miter;stroke-miterlimit:4;stroke-dasharray:none;stroke-opacity:1" />
    <path
       style="fill:none;stroke:#93d78f;stroke-width:0.2;stroke-linecap:butt;stroke-linejoin:miter;stroke-miterlimit:4;stroke-dasharray:none;stroke-opacity:1"
       d="m 127.92338,125.67235 c -0.66913,0.12593 -1.48015,0.1148 -2.02059,-0.29935 -0.49659,-0.38055 -1.05869,-1.178 -0.74837,-1.72124 0.45504,-0.7966 1.90452,-0.73385 2.73154,-0.33677 0.62096,0.29816 1.25515,1.09115 1.08513,1.75866 -0.0993,0.38979 -0.65242,0.5243 -1.04771,0.5987 z"
       id="path899"
       inkscape:connector-curvature="0"
       sodipodi:nodetypes="ssssss" />
    <path
       sodipodi:nodetypes="ssssss"
       inkscape:connector-curvature="0"
       id="path901"
       d="m 127.515,125.0831 c -0.36246,0.0682 -0.80177,0.0622 -1.09452,-0.16215 -0.269,-0.20614 -0.57348,-0.63811 -0.40538,-0.93237 0.24649,-0.43151 1.03165,-0.39751 1.47963,-0.18242 0.33636,0.16151 0.67989,0.59105 0.5878,0.95263 -0.0538,0.21115 -0.35341,0.28401 -0.56753,0.32431 z"
       style="fill:none;stroke:#93d78f;stroke-width:0.2;stroke-linecap:butt;stroke-linejoin:miter;stroke-miterlimit:4;stroke-dasharray:none;stroke-opacity:1" />
    <path
       style="fill:none;stroke:#93d78f;stroke-width:0.2;stroke-linecap:butt;stroke-linejoin:miter;stroke-miterlimit:4;stroke-dasharray:none;stroke-opacity:1"
       d="m 119.67671,112.7366 c -0.667,0.19816 -1.49222,0.56315 -2.07887,0.18899 -0.55021,-0.35092 -0.67029,-1.1901 -0.66146,-1.84263 0.0135,-0.99721 0.51796,-1.96833 1.08668,-2.78757 0.67424,-0.97124 1.78279,-1.55424 2.64584,-2.36236 0.88609,-0.82969 1.5092,-2.0158 2.59858,-2.55134 0.92744,-0.45593 2.05327,-0.60447 3.07106,-0.42522 1.22806,0.21628 2.19995,1.17481 3.30729,1.74814 1.11333,0.57644 2.784,0.58453 3.35454,1.70089 0.41359,0.80925 -0.0945,2.55134 -0.42522,2.69308 -0.33073,0.14175 -3.30073,0.26351 -4.91369,0.61422 -1.90313,0.41381 -3.7778,0.99801 -5.57515,1.74813 -0.8387,0.35003 -1.53842,1.01686 -2.4096,1.27567 z"
       id="path903"
       inkscape:connector-curvature="0"
       sodipodi:nodetypes="sssssssssssss" />
    <path
       style="fill:none;stroke:#93d78f;stroke-width:0.2;stroke-linecap:butt;stroke-linejoin:miter;stroke-miterlimit:4;stroke-dasharray:none;stroke-opacity:1"
       d="m 118.11756,112.0279 c -0.50763,-0.32048 -0.29294,-1.21442 -0.14174,-1.79539 0.27174,-1.04411 1.05584,-1.90753 1.79538,-2.69308 1.34079,-1.42422 2.79044,-3.02847 4.67746,-3.54352 1.05535,-0.28805 2.25072,-0.0439 3.26004,0.37797 1.323,0.55304 3.1786,1.26998 3.35454,2.69308 0.08,0.64709 -0.62537,1.21825 -1.18117,1.55915 -1.21398,0.74458 -2.82553,0.40205 -4.20499,0.75596 -1.81867,0.46659 -3.57202,1.16026 -5.33891,1.79538 -0.74591,0.26812 -1.55037,1.27359 -2.22061,0.85045 z"
       id="path905"
       inkscape:connector-curvature="0"
       sodipodi:nodetypes="ssssssssss" />
    <path
       style="fill:none;stroke:#93d78f;stroke-width:0.2;stroke-linecap:butt;stroke-linejoin:miter;stroke-miterlimit:4;stroke-dasharray:none;stroke-opacity:1"
       d="m 120.24784,109.90039 c -0.7002,-0.37676 1.75211,-2.43741 2.0747,-3.16416 0.43241,-0.97417 1.59491,-1.61784 2.64584,-1.79538 1.14135,-0.19282 2.3425,0.33587 3.35454,0.89769 0.58452,0.32449 1.50544,0.6548 1.46465,1.37016 -0.0228,0.39914 -1.12159,0.70658 -1.74814,0.8977 -1.4107,0.43031 -1.61146,0.734 -4.39397,0.88721 -0.36576,0.0201 -3.07504,1.08035 -3.39762,0.90678 z"
       id="path907"
       inkscape:connector-curvature="0"
       sodipodi:nodetypes="ssssssss" />
    <path
       style="fill:none;stroke:#93d78f;stroke-width:0.2;stroke-linecap:butt;stroke-linejoin:miter;stroke-miterlimit:4;stroke-dasharray:none;stroke-opacity:1"
       d="m 122.67325,107.96802 c -0.60584,-0.37441 1.86972,-1.8187 2.53136,-2.08223 1.03012,-0.4103 2.84615,-0.36723 3.26005,0.66145 0.1859,0.46203 -0.40489,1.00592 -0.85045,1.22843 -1.08574,0.5422 -3.66757,0.9793 -4.94096,0.19235 z"
       id="path909"
       inkscape:connector-curvature="0"
       sodipodi:nodetypes="sssss" />
    <path
       style="fill:none;stroke:#93d78f;stroke-width:0.2;stroke-linecap:butt;stroke-linejoin:miter;stroke-miterlimit:4;stroke-dasharray:none;stroke-opacity:1"
       d="m 125.96056,106.68899 c 0.45717,-0.17772 1.33217,-0.33053 1.46466,0.14174 0.0638,0.22745 -0.34033,0.35855 -0.56696,0.42522 -0.42413,0.12476 -1.15757,0.31551 -1.32292,-0.0945 -0.0792,-0.1965 0.22774,-0.39569 0.42522,-0.47246 z"
       id="path911"
       inkscape:connector-curvature="0"
       sodipodi:nodetypes="sssss" />
    <path
       style="fill:none;stroke:#93d78f;stroke-width:0.2;stroke-linecap:butt;stroke-linejoin:miter;stroke-miterlimit:4;stroke-dasharray:none;stroke-opacity:1"
       d="m 107.72321,120.53236 c -1.14873,-0.45774 -2.33336,-1.36824 -2.69308,-2.55134 -0.2912,-0.95773 -0.0113,-2.18805 0.66146,-2.92931 1.1815,-1.30184 3.25158,-1.58264 5.00819,-1.65365 1.66788,-0.0674 3.48903,0.23825 4.86644,1.18118 0.88685,0.60711 1.84263,2.45684 1.84263,2.64583 0,0.18899 -0.52396,2.31417 -1.41741,2.92932 -1.21082,0.83366 -4.06324,0.37797 -4.39397,0.37797 -1.29142,0 -2.67458,0.47804 -3.87426,0 z"
       id="path913"
       inkscape:connector-curvature="0"
       sodipodi:nodetypes="sssssssss" />
    <path
       style="fill:none;stroke:#93d78f;stroke-width:0.2;stroke-linecap:butt;stroke-linejoin:miter;stroke-miterlimit:4;stroke-dasharray:none;stroke-opacity:1"
       d="m 108.29018,115.99665 c 0.74231,-0.084 1.88144,0.52964 1.84263,1.27567 -0.0289,0.55606 -0.90894,0.83802 -1.46466,0.8032 -0.56279,-0.0353 -1.31272,-0.43123 -1.37016,-0.99219 -0.05,-0.48795 0.5048,-1.03155 0.99219,-1.08668 z"
       id="path917"
       inkscape:connector-curvature="0"
       sodipodi:nodetypes="sssss" />
    <path
       style="fill:none;stroke:#93d78f;stroke-width:0.2;stroke-linecap:butt;stroke-linejoin:miter;stroke-miterlimit:4;stroke-dasharray:none;stroke-opacity:1"
       d="m 108.57366,116.8471 c 0.27067,0.0661 0.76034,0.32973 0.61421,0.56696 -0.21172,0.3437 -1.1526,-0.022 -1.13393,-0.42522 0.008,-0.17938 0.34528,-0.18435 0.51972,-0.14174 z"
       id="path923"
       inkscape:connector-curvature="0"
       sodipodi:nodetypes="ssss" />
    <path
       style="fill:none;stroke:#93d78f;stroke-width:0.2;stroke-linecap:butt;stroke-linejoin:miter;stroke-miterlimit:4;stroke-dasharray:none;stroke-opacity:1"
       d="m 107.72321,119.25669 c -0.84405,-0.59341 -1.64593,-1.61482 -1.6064,-2.64583 0.0342,-0.89094 0.77541,-1.74829 1.55916,-2.17336 1.21952,-0.66142 2.79032,-0.42332 4.15773,-0.18899 1.32308,0.22673 2.70173,0.652 3.73252,1.5119 0.58713,0.48979 1.33949,1.18064 1.22842,1.93713 -0.13623,0.92788 -1.26199,1.4782 -2.12611,1.84264 -1.20871,0.50977 -2.61192,0.40694 -3.92151,0.33073 -1.02678,-0.0598 -2.18242,-0.0227 -3.02381,-0.61422 z"
       id="path925"
       inkscape:connector-curvature="0"
       sodipodi:nodetypes="sssssssss" />
    <path
       style="fill:none;stroke:#93d78f;stroke-width:0.2;stroke-linecap:butt;stroke-linejoin:miter;stroke-miterlimit:4;stroke-dasharray:none;stroke-opacity:1"
       d="m 107.81771,118.4535 c -0.58975,-0.34134 -1.16946,-1.02042 -1.13393,-1.7009 0.0437,-0.8377 0.8238,-1.63512 1.6064,-1.93712 1.45453,-0.56129 3.23192,-0.0281 4.63021,0.66145 0.90894,0.44825 2.38246,1.13447 2.17336,2.12612 -0.22211,1.05331 -1.9588,0.97721 -3.02381,1.13393 -1.40542,0.20681 -3.02276,0.42813 -4.25223,-0.28348 z"
       id="path927"
       inkscape:connector-curvature="0"
       sodipodi:nodetypes="sssssss" />
  </g>
</svg>
